#!OML:ASF H:\Terrain\Patient Classification 1\Walking\liu\liu.ASF
:FULLY-SPECIFIED
:DEGREES
215
root 8.39893 16.4365 -7.29499 8.61795 -0.999229 -6.43553
lowerback -7.40181 2.60668 3.65491
upperback -1.14714 3.05716 3.83469
thorax 2.94071 1.54346 2.21945
lowerneck -15.6045 -6.35248 -14.3388
upperneck 14.8069 -8.09593 14.7585
head 8.38715 -3.33859 6.39373
rclavicle -3.45637e-014 -4.29375e-014
rhumerus -37.8198 12.9676 -83.8205
rradius 53.4162
rwrist -26.7707
rhand -32.2009 -30.6568
rfingers 7.12502
rthumb -5.44271 -60.5669
lclavicle -3.45637e-014 -4.29375e-014
lhumerus -51.1841 -9.62675 96.0891
lradius 25.9977
lwrist 6.66134
lhand -19.8941 -44.0285
lfingers 7.12502
lthumb 6.44208 -14.1465
rfemur 11.7211 6.00185 31.7906
rtibia 0
rfoot -12.3924 6.24688
rtoes -9.07896
lfemur -45.5036 -2.62778 -9.19505
ltibia 20.1896
lfoot -17.0657 15.8799
ltoes -12.265
216
root 8.42455 16.4258 -7.12194 8.63278 -1.38875 -6.49292
lowerback -7.71586 2.73872 3.7199
upperback -1.02076 3.20019 3.81999
thorax 3.25008 1.61687 2.20497
lowerneck -15.3384 -6.34631 -14.3826
upperneck 14.4436 -8.09494 14.8708
head 8.22658 -3.34369 6.43525
rclavicle 1.62258e-014 4.53229e-014
rhumerus -38.1554 13.1094 -83.9967
rradius 53.7337
rwrist -26.8461
rhand -31.9261 -29.7329
rfingers 7.12502
rthumb -5.17733 -59.6497
lclavicle 1.62258e-014 4.53229e-014
lhumerus -51.024 -9.75164 96.1445
lradius 25.5284
lwrist 6.32305
lhand -18.9925 -41.7467
lfingers 7.12502
lthumb 7.31242 -11.8931
rfemur 12.3999 6.19824 31.7072
rtibia -2.22639e-014
rfoot -12.654 6.41789
rtoes -9.99736
lfemur -45.4693 -2.28896 -9.32408
ltibia 20.3101
lfoot -16.9597 16.2907
ltoes -17.5463
217
root 8.44732 16.4053 -6.9578 8.66718 -1.57004 -6.56732
lowerback -8.03609 2.77254 3.79881
upperback -0.882829 3.20958 3.81157
thorax 3.57706 1.62421 2.17708
lowerneck -15.1749 -6.26607 -14.6491
upperneck 14.1145 -7.9815 15.2601
head 8.10115 -3.28047 6.63024
rclavicle 5.64797e-014 4.69132e-014
rhumerus -38.2995 13.3165 -84.2773
rradius 53.8193
rwrist -26.8615
rhand -31.5384 -28.5135
rfingers 7.12502
rthumb -4.80298 -58.4391
lclavicle 5.64797e-014 4.69132e-014
lhumerus -50.8206 -9.69637 95.9845
lradius 25.1876
lwrist 5.75146
lhand -16.844 -36.978
lfingers 7.12502
lthumb 9.38584 -7.20702
rfemur 13.0026 6.19851 31.678
rtibia -4.45278e-014
rfoot -12.8046 6.5642
rtoes -11.2378
lfemur -45.5009 -1.76584 -9.62666
ltibia 20.4302
lfoot -16.5025 15.9762
ltoes -21.8105
218
root 8.46802 16.3802 -6.79939 8.7639 -1.77485 -6.66812
lowerback -8.12669 2.7453 3.8123
upperback -0.951594 3.16795 3.85071
thorax 3.55491 1.60295 2.208
lowerneck -15.1673 -6.1815 -14.7156
upperneck 14.3051 -7.86992 15.2612
head 8.14636 -3.2307 6.66291
rclavicle -1.72446e-014 -1.31198e-014
rhumerus -38.5333 13.6538 -84.6621
rradius 53.5823
rwrist -26.7213
rhand -31.5652 -28.7916
rfingers 7.12502
rthumb -4.82894 -58.7166
lclavicle -1.72446e-014 -1.31198e-014
lhumerus -51.0549 -9.39555 95.8689
lradius 25.0564
lwrist 5.2706
lhand -14.1896 -31.3445
lfingers 7.12502
lthumb 11.9463 -1.70541
rfemur 13.4885 6.2397 31.6562
rtibia 3.49861e-014
rfoot -12.6425 6.8084
rtoes -10.5082
lfemur -45.5793 -1.09111 -9.91535
ltibia 20.6582
lfoot -16.0837 15.2174
ltoes -18.9797
219
root 8.48875 16.351 -6.63764 8.80375 -2.07212 -6.79315
lowerback -8.03926 2.69732 3.74851
upperback -1.05345 3.1181 3.92935
thorax 3.39275 1.57588 2.31074
lowerneck -15.3491 -6.10226 -14.3695
upperneck 14.7201 -7.76329 14.7597
head 8.25945 -3.19434 6.44675
rclavicle 1.68967e-015 1.66979e-014
rhumerus -38.6887 13.9733 -85.0766
rradius 53.2
rwrist -26.4545
rhand -32.1812 -30.5316
rfingers 7.12502
rthumb -5.42371 -60.4422
lclavicle 1.68967e-015 1.66979e-014
lhumerus -51.3317 -9.16216 95.8594
lradius 24.8948
lwrist 4.96403
lhand -11.9784 -26.6264
lfingers 7.12502
lthumb 14.0778 2.87681
rfemur 14.0487 6.36083 31.6671
rtibia 1.27222e-014
rfoot -12.4551 6.99235
rtoes -8.89785
lfemur -45.5888 -0.314975 -10.1899
ltibia 20.917
lfoot -15.5113 14.5888
ltoes -13.3373
220
root 8.51116 16.3222 -6.47519 8.82219 -2.45225 -6.95449
lowerback -8.0263 2.75144 3.81129
upperback -1.00146 3.18183 3.94273
thorax 3.44161 1.60851 2.29814
lowerneck -15.7164 -6.09816 -13.9548
upperneck 14.9351 -7.76063 14.3992
head 8.36221 -3.18509 6.24823
rclavicle -9.29318e-015 -2.14687e-014
rhumerus -38.8233 14.058 -85.3795
rradius 53.0432
rwrist -26.3229
rhand -32.6571 -31.7247
rfingers 7.12502
rthumb -5.88319 -61.623
lclavicle -9.29318e-015 -2.14687e-014
lhumerus -51.2281 -8.94737 95.491
lradius 24.7494
lwrist 4.24821
lhand -10.8681 -24.5793
lfingers 7.12502
lthumb 15.1475 4.8463
rfemur 14.6713 6.56182 31.7167
rtibia -1.59028e-014
rfoot -12.6361 7.1358
rtoes -9.24347
lfemur -45.6071 0.608618 -10.5133
ltibia 21.3149
lfoot -14.8417 14.0371
ltoes -10.4552
221
root 8.53211 16.2833 -6.31907 9.05236 -2.65979 -7.20303
lowerback -8.1422 2.84366 3.99464
upperback -1.06108 3.28204 3.97368
thorax 3.45175 1.65996 2.24402
lowerneck -15.7239 -6.12312 -14.1015
upperneck 14.8419 -7.80718 14.6883
head 8.36008 -3.19032 6.36846
rclavicle 3.79182e-014 4.05521e-014
rhumerus -39.2162 13.8989 -85.4761
rradius 53.0302
rwrist -26.1258
rhand -32.5585 -31.5919
rfingers 7.12502
rthumb -5.78796 -61.4929
lclavicle 3.79182e-014 4.05521e-014
lhumerus -50.6775 -7.45677 93.55
lradius 24.1809
lwrist -1.20261
lhand -9.31643 -26.1985
lfingers 7.12502
lthumb 16.6418 3.10809
rfemur 15.0774 6.65152 31.8549
rtibia -3.18055e-014
rfoot -12.8548 7.26281
rtoes -10.3696
lfemur -45.9921 1.3936 -10.6842
ltibia 22.0128
lfoot -14.9311 13.3709
ltoes -9.08347
222
root 8.55109 16.2614 -6.15753 9.23385 -2.80446 -7.29298
lowerback -8.23068 2.82115 3.94878
upperback -1.20914 3.25693 4.00467
thorax 3.34277 1.64552 2.29805
lowerneck -15.4845 -6.0557 -14.2892
upperneck 14.8551 -7.75444 14.9591
head 8.3332 -3.16223 6.50875
rclavicle 4.41053e-014 7.95139e-015
rhumerus -39.7013 13.8651 -85.6562
rradius 52.946
rwrist -25.8437
rhand -32.2307 -31.2463
rfingers 7.12502
rthumb -5.47148 -61.1557
lclavicle 4.41053e-014 7.95139e-015
lhumerus -50.9507 -7.60492 93.6485
lradius 23.9105
lwrist -1.08631
lhand -9.54632 -26.7767
lfingers 7.12502
lthumb 16.4205 2.54833
rfemur 15.4893 6.65232 31.8242
rtibia -4.13472e-014
rfoot -12.5841 7.30664
rtoes -11.4153
lfemur -46.2454 1.83018 -10.8677
ltibia 22.8614
lfoot -15.2662 12.9984
ltoes -8.1943
223
root 8.57621 16.2354 -5.97867 9.26933 -3.22576 -7.35672
lowerback -8.3133 2.8339 3.8899
upperback -1.18741 3.2715 4.0136
thorax 3.4075 1.65224 2.34741
lowerneck -15.6884 -6.01177 -14.0534
upperneck 15.084 -7.71693 14.8009
head 8.4225 -3.13526 6.42075
rclavicle -2.42269e-014 -3.85642e-014
rhumerus -39.7668 13.8959 -85.9041
rradius 52.5709
rwrist -25.5287
rhand -31.8821 -31.0954
rfingers 7.12502
rthumb -5.13485 -61.0132
lclavicle -2.42269e-014 -3.85642e-014
lhumerus -51.0879 -7.85261 93.8395
lradius 23.6621
lwrist -0.544409
lhand -9.544 -26.5882
lfingers 7.12502
lthumb 16.4227 2.73665
rfemur 16.1426 6.89327 31.7113
rtibia 1.59028e-014
rfoot -12.172 7.37517
rtoes -12.027
lfemur -46.2161 2.47488 -11.143
ltibia 23.8347
lfoot -14.893 12.8967
ltoes -11.0596
224
root 8.6067 16.2046 -5.79708 9.43299 -3.60439 -7.63266
lowerback -8.63387 2.93655 4.17573
upperback -1.04677 3.34988 4.01551
thorax 3.74832 1.69641 2.22481
lowerneck -16.1365 -6.04644 -13.7924
upperneck 15.2393 -7.74872 14.5994
head 8.54018 -3.13407 6.29863
rclavicle -1.37907e-014 -1.07344e-014
rhumerus -39.5938 13.7589 -86.071
rradius 52.1877
rwrist -25.2181
rhand -31.5113 -31.2709
rfingers 7.12502
rthumb -4.77684 -61.1971
lclavicle -1.37907e-014 -1.07344e-014
lhumerus -50.8544 -7.65669 93.589
lradius 23.4665
lwrist -0.405721
lhand -9.12681 -25.9874
lfingers 7.12502
lthumb 16.8244 3.3037
rfemur 16.6909 7.15447 31.7812
rtibia -5.40694e-014
rfoot -11.8519 7.51056
rtoes -10.6791
lfemur -46.3699 3.36433 -11.3378
ltibia 24.8454
lfoot -13.7159 12.6087
ltoes -15.8595
225
root 8.63748 16.1904 -5.62009 9.65137 -3.74904 -7.87082
lowerback -8.90898 2.97326 4.48619
upperback -1.10993 3.35107 4.01007
thorax 3.85399 1.70098 2.06101
lowerneck -16.1192 -6.00741 -13.7756
upperneck 15.3825 -7.71163 14.5781
head 8.57706 -3.11743 6.29757
rclavicle 7.03201e-015 -1.51076e-014
rhumerus -40.0043 13.821 -86.3543
rradius 52.099
rwrist -25.2368
rhand -31.4402 -31.4304
rfingers 7.12502
rthumb -4.70816 -61.3581
lclavicle 7.03201e-015 -1.51076e-014
lhumerus -51.1569 -7.63749 93.7715
lradius 23.7122
lwrist 1.05239
lhand -7.94075 -24.7591
lfingers 7.12502
lthumb 17.9658 4.43112
rfemur 17.0755 7.2022 31.8051
rtibia -6.36111e-015
rfoot -11.3338 7.65161
rtoes -9.53578
lfemur -46.7527 4.0385 -11.59
ltibia 26.0141
lfoot -11.9569 12.4473
ltoes -18.8076
226
root 8.66492 16.2051 -5.44571 9.98869 -3.90375 -8.02795
lowerback -9.0935 2.99943 4.67257
upperback -1.38653 3.3696 3.98591
thorax 3.68001 1.70921 1.93421
lowerneck -15.8713 -5.95169 -13.9405
upperneck 15.4321 -7.67934 14.8188
head 8.56141 -3.10017 6.42157
rclavicle -1.81391e-015 -2.10712e-014
rhumerus -40.6905 13.9144 -86.7175
rradius 51.8585
rwrist -25.3105
rhand -31.6553 -30.7887
rfingers 7.12502
rthumb -4.91592 -60.7117
lclavicle -1.81391e-015 -2.10712e-014
lhumerus -51.8993 -8.11738 94.4947
lradius 24.0227
lwrist 3.58116
lhand -6.66995 -23.7943
lfingers 7.12502
lthumb 19.1882 5.27909
rfemur 17.2695 7.27136 31.7387
rtibia 0
rfoot -10.7593 7.71201
rtoes -10.6014
lfemur -47.2925 4.60904 -11.8484
ltibia 27.1778
lfoot -9.46674 12.8219
ltoes -18.2609
